<svg width="24" height="24" viewBox="0 0 24 24" fill="none" xmlns="http://www.w3.org/2000/svg">
<mask id="mask0_214_3842" style="mask-type:alpha" maskUnits="userSpaceOnUse" x="2" y="2" width="20" height="20">
<path d="M9 22H15C20 22 22 20 22 15V9C22 4 20 2 15 2H9C4 2 2 4 2 9V15C2 20 4 22 9 22Z" fill="#D9D9D9"/>
</mask>
<g mask="url(#mask0_214_3842)">
<rect x="2" y="2" width="20" height="20" fill="#40E0B0"/>
<path d="M1 7.75362C1 7.75362 3.41897 6.44736 5.2 6.10435C9.93316 5.19279 11.9734 10.5744 16.75 9.81522C18.9967 9.45812 22 7.75362 22 7.75362V16H1V7.75362Z" fill="#F86E87"/>
<path d="M1 13.7536C1 13.7536 3.41897 12.4474 5.2 12.1043C9.93316 11.1928 11.9734 16.5744 16.75 15.8152C18.9967 15.4581 22 13.7536 22 13.7536V22H1V13.7536Z" fill="#4098E9"/>
</g>
</svg>
