<svg width="24" height="24" viewBox="0 0 24 24" fill="none" xmlns="http://www.w3.org/2000/svg">
<mask id="mask0_214_3831" style="mask-type:alpha" maskUnits="userSpaceOnUse" x="2" y="2" width="20" height="20">
<path d="M9 22H15C20 22 22 20 22 15V9C22 4 20 2 15 2H9C4 2 2 4 2 9V15C2 20 4 22 9 22Z" fill="#D9D9D9"/>
</mask>
<g mask="url(#mask0_214_3831)">
<rect x="2" y="2" width="20" height="20" fill="#FBFBFB"/>
<path d="M1 13.7536C1 13.7536 3.41897 12.4474 5.2 12.1043C9.93316 11.1928 11.9734 16.5744 16.75 15.8152C18.9967 15.4581 22 13.7536 22 13.7536V22H1V13.7536Z" fill="#131313"/>
</g>
</svg>
