<svg width="30" height="30" fill="none" xmlns="http://www.w3.org/2000/svg"><path d="M20.793 26.26c-2.08 0-4.775-.193-6.893-.308-1.578-.116-2.964-.193-3.734-.193H5.93c-.924 0-1.54-.924-1.54-1.771v-9.356c0-.886.693-1.58 1.579-1.58l4.62-.038c.116 0 .231-.038.347-.038 1.732-.77 2.964-2.272 3.58-4.312.27-.886.347-1.771.424-2.541.154-1.656.308-3.196 2.31-3.196.77 0 1.386.308 1.848.924 1.078 1.463.924 4.274.308 6.276-.154.539-.154.962.039 1.232.385.54 1.501.578 2.31.578h1.463c2.695 0 3.273 1.193 3.273 2.194 0 .655-.192 1.58-.5 1.964-.154.193-.193.462-.154.693.077.27.115.654.115 1.116 0 .578-.154 1.079-.423 1.387a.801.801 0 00-.154.654c.077.27.115.616.115 1.04 0 .808-.462 1.463-.654 1.655a.884.884 0 00-.154.54c.038.615 0 1.5-.655 2.194-.539.616-1.424.924-2.58.924-.192-.039-.424-.039-.654-.039zM17.25 3.658c-1.27 0-1.386.732-1.578 2.503-.078.809-.154 1.733-.462 2.695-.693 2.31-2.08 3.966-4.043 4.813l-.077.038a2.275 2.275 0 01-.54.077l-4.62.039c-.385 0-.77.385-.77.809v9.356c0 .462.347 1 .77 1h4.236c.809 0 2.156.078 3.773.193 2.387.154 5.39.347 7.547.308.962 0 1.617-.23 2.04-.654.462-.5.5-1.155.462-1.656 0-.385.116-.731.308-1l.039-.039c.23-.27.5-.732.5-1.155 0-.347-.038-.616-.077-.809v-.038c-.115-.462 0-.924.308-1.31.077-.115.27-.384.27-.923 0-.386-.038-.693-.116-.925-.115-.5 0-1 .309-1.386.153-.192.346-.847.346-1.463 0-.346 0-1.424-2.503-1.424H21.91c-1.04 0-2.348-.116-2.926-.925-.346-.462-.424-1.116-.154-1.925.578-1.886.693-4.389-.192-5.583-.463-.423-.886-.615-1.387-.615z" fill="#545454"/><path d="M10.936 25.759c-.231 0-.385-.154-.385-.385V13.438c0-.231.153-.385.385-.385.23 0 .385.154.385.385v11.936c0 .23-.154.385-.385.385z" fill="#545454"/></svg>