<svg width="30" height="30" viewBox="0 0 30 30" fill="none" xmlns="http://www.w3.org/2000/svg">
<path d="M20.7925 26.2597C18.7135 26.2597 16.0181 26.0671 13.9005 25.9516C12.3218 25.8361 10.9357 25.759 10.1657 25.759H5.93024C5.0061 25.759 4.39026 24.8349 4.39026 23.9878V14.6315C4.39026 13.746 5.08318 13.0529 5.96895 13.0529L10.5892 13.0144C10.7047 13.0144 10.8202 12.976 10.9357 12.976C12.6683 12.206 13.9005 10.7044 14.5163 8.66377C14.786 7.77827 14.8628 6.8925 14.9399 6.12251C15.0938 4.46702 15.248 2.92676 17.2502 2.92676C18.0202 2.92676 18.6363 3.23482 19.0983 3.8509C20.1764 5.31408 20.0224 8.12473 19.4063 10.127C19.2524 10.666 19.2524 11.0895 19.4447 11.3592C19.8299 11.8982 20.9464 11.9366 21.7551 11.9366H22.5638H23.2183C25.9134 11.9366 26.4912 13.1301 26.4912 14.1314C26.4912 14.7859 26.2986 15.7101 25.9906 16.095C25.8367 16.2876 25.798 16.557 25.8367 16.7879C25.9137 17.0576 25.9521 17.4424 25.9521 17.9044C25.9521 18.4818 25.7983 18.9825 25.5286 19.2905C25.3747 19.4831 25.336 19.714 25.3747 19.945C25.4518 20.2147 25.4902 20.5611 25.4902 20.9847C25.4902 21.7934 25.0282 22.4478 24.8357 22.6401C24.7202 22.794 24.6818 22.9866 24.6818 23.1792C24.7202 23.7953 24.6818 24.6808 24.0273 25.374C23.4882 25.9901 22.6027 26.2981 21.4476 26.2981C21.2545 26.2594 21.0235 26.2594 20.7925 26.2594L20.7925 26.2597ZM17.2503 3.65842C15.9797 3.65842 15.8642 4.39004 15.6716 6.16097C15.5945 6.96967 15.5177 7.89354 15.2096 8.85611C14.5167 11.1664 13.1306 12.8219 11.1667 13.669L11.0896 13.7074C10.9358 13.7458 10.7432 13.7845 10.5506 13.7845L5.93033 13.8229C5.54546 13.8232 5.16034 14.208 5.16034 14.6316V23.9878C5.16034 24.4498 5.5068 24.9888 5.93033 24.9888H10.1658C10.9745 24.9888 12.3219 25.0659 13.939 25.1814C16.3261 25.3353 19.3293 25.5279 21.4856 25.4894C22.4482 25.4894 23.1027 25.2585 23.5263 24.8349C23.9882 24.3343 24.0269 23.6798 23.9882 23.1794C23.9882 22.7943 24.1037 22.4478 24.2963 22.1784L24.3347 22.14C24.5657 21.8704 24.8353 21.4084 24.8353 20.9849C24.8353 20.6384 24.7969 20.3688 24.7582 20.1762V20.1378C24.6427 19.6758 24.7582 19.2136 25.0663 18.8287C25.1434 18.7132 25.3359 18.4436 25.3359 17.9046C25.3359 17.5194 25.2975 17.2117 25.2204 16.9804C25.105 16.4798 25.2204 15.9794 25.5285 15.5943C25.6824 15.4018 25.875 14.7473 25.875 14.1312C25.875 13.7847 25.875 12.7066 23.3724 12.7066H22.7563H21.9092C20.8696 12.7066 19.5606 12.5911 18.9831 11.7825C18.6366 11.3205 18.5595 10.666 18.8292 9.85732C19.4066 7.97061 19.5221 5.46798 18.6366 4.27446C18.1744 3.85119 17.7508 3.65862 17.2502 3.65862L17.2503 3.65842Z" fill="#545454"/>
<path d="M10.9357 25.7589C10.7048 25.7589 10.5506 25.605 10.5506 25.3738V13.4379C10.5506 13.2069 10.7045 13.0527 10.9357 13.0527C11.1667 13.0527 11.3209 13.2066 11.3209 13.4379V25.3738C11.3209 25.6048 11.1667 25.7587 10.9357 25.7587V25.7589Z" fill="#545454"/>
</svg>
