<svg width="42" height="42" viewBox="0 0 42 42" fill="none" xmlns="http://www.w3.org/2000/svg">
<path d="M24.0275 6.1425L27.1075 12.3025C27.5275 13.16 28.6475 13.9825 29.5925 14.14L35.175 15.0675C38.745 15.6625 39.585 18.2525 37.0125 20.8075L32.6725 25.1475C31.9375 25.8825 31.535 27.3 31.7625 28.315L33.005 33.6875C33.985 37.94 31.7275 39.585 27.965 37.3625L22.7325 34.265C21.7875 33.705 20.23 33.705 19.2675 34.265L14.035 37.3625C10.29 39.585 8.015 37.9225 8.995 33.6875L10.2375 28.315C10.465 27.3 10.0625 25.8825 9.3275 25.1475L4.9875 20.8075C2.4325 18.2525 3.255 15.6625 6.825 15.0675L12.4075 14.14C13.335 13.9825 14.455 13.16 14.875 12.3025L17.955 6.1425C19.635 2.8 22.365 2.8 24.0275 6.1425Z" stroke="#1C1D20" stroke-width="1.5" stroke-linecap="round" stroke-linejoin="round"/>
</svg>
