<svg width="42" height="42" viewBox="0 0 42 42" fill="none" xmlns="http://www.w3.org/2000/svg">
<path d="M14.665 21L18.8825 25.235L27.335 16.765" stroke="#1C1D20" stroke-width="1.5" stroke-linecap="round" stroke-linejoin="round"/>
<path d="M18.8125 4.2875C20.02 3.255 21.9975 3.255 23.2225 4.2875L25.9875 6.6675C26.5125 7.1225 27.4925 7.49 28.1925 7.49H31.1675C33.0225 7.49 34.545 9.0125 34.545 10.8675V13.8425C34.545 14.525 34.9125 15.5225 35.3675 16.0475L37.7475 18.8125C38.78 20.02 38.78 21.9975 37.7475 23.2225L35.3675 25.9875C34.9125 26.5125 34.545 27.4925 34.545 28.1925V31.1675C34.545 33.0225 33.0225 34.545 31.1675 34.545H28.1925C27.51 34.545 26.5125 34.9125 25.9875 35.3675L23.2225 37.7475C22.015 38.78 20.0375 38.78 18.8125 37.7475L16.0475 35.3675C15.5225 34.9125 14.5425 34.545 13.8425 34.545H10.815C8.96 34.545 7.4375 33.0225 7.4375 31.1675V28.175C7.4375 27.4925 7.07 26.5125 6.6325 25.9875L4.27 23.205C3.255 21.9975 3.255 20.0375 4.27 18.83L6.6325 16.0475C7.07 15.5225 7.4375 14.5425 7.4375 13.86V10.85C7.4375 8.995 8.96 7.4725 10.815 7.4725H13.8425C14.525 7.4725 15.5225 7.105 16.0475 6.65L18.8125 4.2875Z" stroke="#1C1D20" stroke-width="1.5" stroke-linecap="round" stroke-linejoin="round"/>
</svg>
