<svg width="42" height="42" viewBox="0 0 42 42" fill="none" xmlns="http://www.w3.org/2000/svg">
<path d="M6.12499 35.875C7.57749 37.3275 9.92249 37.3275 11.375 35.875L34.125 13.125C35.5775 11.6725 35.5775 9.32752 34.125 7.87502C32.6725 6.42252 30.3275 6.42252 28.875 7.87502L6.12499 30.625C4.67249 32.0775 4.67249 34.4225 6.12499 35.875Z" stroke="#1C1D20" stroke-width="1.5" stroke-linecap="round" stroke-linejoin="round"/>
<path d="M31.5175 15.7325L26.2675 10.4825" stroke="#1C1D20" stroke-width="1.5" stroke-linecap="round" stroke-linejoin="round"/>
<path d="M14.875 4.27L17.5 3.5L16.73 6.125L17.5 8.75L14.875 7.98L12.25 8.75L13.02 6.125L12.25 3.5L14.875 4.27Z" stroke="#1C1D20" stroke-linecap="round" stroke-linejoin="round"/>
<path d="M7.875 14.77L10.5 14L9.73 16.625L10.5 19.25L7.875 18.48L5.25 19.25L6.02 16.625L5.25 14L7.875 14.77Z" stroke="#1C1D20" stroke-linecap="round" stroke-linejoin="round"/>
<path d="M34.125 23.52L36.75 22.75L35.98 25.375L36.75 28L34.125 27.23L31.5 28L32.27 25.375L31.5 22.75L34.125 23.52Z" stroke="#1C1D20" stroke-linecap="round" stroke-linejoin="round"/>
</svg>
