<svg width="42" height="42" viewBox="0 0 42 42" fill="none" xmlns="http://www.w3.org/2000/svg">
<path d="M7.035 10.4475C4.8125 13.3875 3.5 17.045 3.5 21C3.5 30.66 11.34 38.5 21 38.5C30.66 38.5 38.5 30.66 38.5 21C38.5 11.34 30.66 3.5 21 3.5" stroke="#1C1D20" stroke-width="1.5" stroke-linecap="round" stroke-linejoin="round"/>
<path d="M8.75 21C8.75 27.7725 14.2275 33.25 21 33.25C27.7725 33.25 33.25 27.7725 33.25 21C33.25 14.2275 27.7725 8.75 21 8.75" stroke="#1C1D20" stroke-width="1.5" stroke-linecap="round" stroke-linejoin="round"/>
<path d="M21 28C24.8675 28 28 24.8675 28 21C28 17.1325 24.8675 14 21 14" stroke="#1C1D20" stroke-width="1.5" stroke-linecap="round" stroke-linejoin="round"/>
</svg>
