<svg width="50" height="50" viewBox="0 0 50 50" fill="none" xmlns="http://www.w3.org/2000/svg">
<path d="M16.6437 7.29061C16.3712 7.56967 16.2186 7.94428 16.2186 8.33436C16.2186 8.72445 16.3712 9.09906 16.6437 9.37811L31.8719 25L16.6437 40.6187C16.3712 40.8978 16.2186 41.2724 16.2186 41.6625C16.2186 42.0526 16.3712 42.4272 16.6437 42.7062C16.7762 42.8423 16.9346 42.9505 17.1096 43.0243C17.2846 43.0982 17.4726 43.1362 17.6625 43.1362C17.8524 43.1362 18.0404 43.0982 18.2154 43.0243C18.3903 42.9505 18.5487 42.8423 18.6812 42.7062L34.875 26.0906C35.1594 25.7988 35.3186 25.4075 35.3186 25C35.3186 24.5925 35.1594 24.2012 34.875 23.9094L18.6812 7.29374C18.5487 7.15767 18.3903 7.04951 18.2154 6.97566C18.0404 6.90182 17.8524 6.86377 17.6625 6.86377C17.4726 6.86377 17.2846 6.90182 17.1096 6.97566C16.9346 7.04951 16.7762 7.15767 16.6437 7.29374V7.29061Z" fill="#1C1D20"/>
</svg>
