<svg width="16" height="16" viewBox="0 0 16 16" fill="none" xmlns="http://www.w3.org/2000/svg">
<path d="M7.99953 10.6665C7.84376 10.6668 7.69281 10.6126 7.57287 10.5132L3.57287 7.17986C3.43672 7.0667 3.35111 6.90409 3.33485 6.72781C3.3186 6.55152 3.37304 6.376 3.4862 6.23986C3.59936 6.10371 3.76197 6.0181 3.93825 6.00184C4.11453 5.98559 4.29005 6.04003 4.4262 6.15319L7.99953 9.13986L11.5729 6.25986C11.6411 6.20448 11.7195 6.16313 11.8037 6.13817C11.888 6.11322 11.9763 6.10516 12.0637 6.11445C12.151 6.12374 12.2357 6.15021 12.3128 6.19232C12.3898 6.23444 12.4579 6.29137 12.5129 6.35986C12.5739 6.42841 12.6202 6.50882 12.6487 6.59607C12.6772 6.68332 12.6874 6.77552 12.6787 6.8669C12.6699 6.95827 12.6424 7.04685 12.5978 7.12709C12.5532 7.20733 12.4925 7.2775 12.4195 7.33319L8.41953 10.5532C8.29614 10.6369 8.14827 10.6768 7.99953 10.6665Z" fill="#1C1D20"/>
</svg>
