<svg width="20" height="24" viewBox="0 0 20 24" fill="none" xmlns="http://www.w3.org/2000/svg">
<path fill-rule="evenodd" clip-rule="evenodd" d="M9.99999 0C15.5196 0 20 4.35246 20 9.7141C20 12.7593 18.5553 15.6725 16.7589 18.0484C14.2205 21.4078 11.0447 23.6674 11.0447 23.6674C11.0441 23.6674 11.0441 23.6674 11.0441 23.668C10.4229 24.1107 9.57712 24.1107 8.95593 23.668C8.95593 23.6674 8.95593 23.6674 8.95534 23.6674C8.95534 23.6674 5.77942 21.4078 3.24112 18.0484C1.44467 15.6724 0 12.7592 0 9.7141C0 4.35232 4.48057 0 10 0H9.99999ZM9.99999 5.71444C7.72771 5.71444 5.8822 7.50699 5.8822 9.7143C5.8822 11.9218 7.72771 13.7144 9.99999 13.7144C12.2723 13.7144 14.1178 11.9218 14.1178 9.7143C14.1178 7.50699 12.2723 5.71444 9.99999 5.71444Z" fill="#DDDEE6"/>
</svg>
