<svg width="21" height="20" viewBox="0 0 21 20" fill="none" xmlns="http://www.w3.org/2000/svg">
<path d="M10.5 1.25C8.6773 1.25215 6.92987 1.97717 5.64102 3.26602C4.35218 4.55486 3.62716 6.3023 3.62501 8.125C3.62282 9.61452 4.10937 11.0636 5.01001 12.25C5.01001 12.25 5.19751 12.4969 5.22813 12.5325L10.5 18.75L15.7744 12.5294C15.8019 12.4963 15.99 12.25 15.99 12.25L15.9906 12.2481C16.8908 11.0623 17.3771 9.61383 17.375 8.125C17.3729 6.3023 16.6478 4.55486 15.359 3.26602C14.0701 1.97717 12.3227 1.25215 10.5 1.25ZM10.5 10.625C10.0056 10.625 9.5222 10.4784 9.11108 10.2037C8.69996 9.92897 8.37953 9.53852 8.19031 9.08171C8.00109 8.62489 7.95158 8.12223 8.04804 7.63727C8.14451 7.15232 8.38261 6.70686 8.73224 6.35723C9.08187 6.0076 9.52733 5.7695 10.0123 5.67304C10.4972 5.57657 10.9999 5.62608 11.4567 5.8153C11.9135 6.00452 12.304 6.32495 12.5787 6.73607C12.8534 7.1472 13 7.63055 13 8.125C12.9992 8.78779 12.7355 9.42319 12.2669 9.89185C11.7982 10.3605 11.1628 10.6242 10.5 10.625Z" fill="#1C1D20"/>
</svg>
