<svg width="104" height="28" viewBox="0 0 104 28" fill="none" xmlns="http://www.w3.org/2000/svg">
<path d="M41.2863 18.118L39.4525 15.4691H37.4286V18.118H35.228V8.60938H39.3439C40.1861 8.60938 40.9173 8.74974 41.5376 9.03047C42.158 9.3112 42.6356 9.70965 42.9707 10.2258C43.3058 10.742 43.4733 11.3533 43.4733 12.0596C43.4733 12.766 43.3035 13.375 42.9639 13.8866C42.6243 14.3983 42.1421 14.79 41.5173 15.0616L43.6499 18.118H41.2863ZM49.4365 18.281C48.0782 18.281 47.0209 17.9052 46.2647 17.1535C45.5086 16.4019 45.1305 15.3288 45.1305 13.9342V8.60938H47.3311V13.8527C47.3311 15.5552 48.0374 16.4064 49.4501 16.4064C50.1384 16.4064 50.6636 16.2004 51.0258 15.7884C51.3881 15.3763 51.5692 14.7311 51.5692 13.8527V8.60938H53.7425V13.9342C53.7425 15.3288 53.3645 16.4019 52.6083 17.1535C51.8522 17.9052 50.7949 18.281 49.4365 18.281ZM64.6366 18.118V8.60938H62.4633V14.3824L57.7361 8.60938H55.9159V18.118H58.0893V12.3449L62.83 18.118H64.6366ZM73.1536 16.0804H68.7389L67.8967 18.118H65.6418L69.8799 8.60938H72.0533L76.305 18.118H73.9958L73.1536 16.0804ZM76.2235 10.4024H79.2662V18.118H81.4668V10.4024H84.5095V8.60938H76.2235V10.4024ZM93.0537 16.3521V18.118H85.6913V8.60938H92.8771V10.3753H87.8783V12.44H92.293V14.1515H87.8783V16.3521H93.0537ZM98.5007 14.8171L100.796 18.118H103.336L99.7912 13.2007L103.106 8.60938H100.728L98.5822 11.6929L96.3952 8.60938H93.8958L97.2374 13.2822L93.7193 18.118H96.2458L98.5007 14.8171ZM41.2456 12.0596C41.2456 11.5253 41.0735 11.1156 40.7294 10.8303C40.3853 10.5451 39.8827 10.4024 39.2216 10.4024H37.4286V13.7168H39.2216C39.8827 13.7168 40.3853 13.572 40.7294 13.2822C41.0735 12.9924 41.2456 12.5849 41.2456 12.0596ZM72.4608 14.4096L70.953 10.7692L69.4453 14.4096H72.4608Z" fill="#DDDEE6"/>
<path d="M0.331803 11.9303C0.153943 11.6824 0.0872847 11.3782 0.14516 11.0825C0.394069 9.76963 1.6256 6.96543 2.31477 5.95688C2.44808 5.76118 2.64367 5.61333 2.87046 5.54386C4.84448 4.90906 12.9583 4.72656 14.0475 13.4431C8.61906 18.5253 2.30143 14.63 0.331803 11.9303Z" fill="#A0C645" fill-opacity="0.89"/>
<path d="M12.4869 26.8679C12.238 27.0418 11.9223 27.1027 11.6244 27.0462C10.2819 26.7984 7.41416 25.5941 6.38276 24.9202C6.18263 24.7899 6.03143 24.5985 5.96038 24.3768C5.31576 22.4465 5.1379 14.508 14.0519 13.4561C19.2404 18.7686 15.2524 24.942 12.4869 26.8679Z" fill="#0A8CD1" fill-opacity="0.89"/>
<path d="M27.7187 15.2906C27.8922 15.5383 27.9499 15.8427 27.8833 16.1383C27.6032 17.4425 26.305 20.2207 25.5937 21.2119C25.4558 21.4074 25.2557 21.5465 25.0245 21.6162C23.0417 22.2031 14.919 22.1987 14.0432 13.4603C19.5916 8.5042 25.8159 12.543 27.7187 15.2906Z" fill="#F23E3A" fill-opacity="0.89"/>
<path d="M22.5614 24.0901C22.5081 24.3856 22.3302 24.6422 22.0769 24.8117C20.9431 25.5552 18.0356 26.6681 16.8174 26.8941C16.5816 26.9377 16.3371 26.9029 16.1238 26.7986C14.2831 25.8682 8.45452 20.3339 14.0475 13.4648C21.5612 13.6866 23.1529 20.8207 22.5614 24.0901Z" fill="#FFB921" fill-opacity="0.89"/>
<path d="M24.9579 5.17867C25.2603 5.23082 25.5271 5.40474 25.696 5.65688C26.4518 6.76987 27.5721 9.61747 27.7989 10.8087C27.8433 11.039 27.8077 11.2782 27.6967 11.4869C26.7363 13.2824 21.0544 18.9558 14.0565 13.4518C14.3188 6.10901 21.619 4.58744 24.9579 5.17867Z" fill="#F3A044" fill-opacity="0.89"/>
<path d="M3.30619 21.9383C3.0038 21.8906 2.73717 21.721 2.5637 21.4731C1.7856 20.3776 0.607556 17.5475 0.354098 16.3606C0.309554 16.1302 0.336375 15.8954 0.443028 15.6824C1.37216 13.8651 6.93851 8.0917 14.0476 13.4565C13.932 20.8037 6.65839 22.4688 3.30619 21.9383Z" fill="#71D3FA" fill-opacity="0.89"/>
<path d="M15.8837 0.318228C16.1372 0.148602 16.4527 0.0920083 16.7507 0.152896C18.0889 0.43126 20.9298 1.69195 21.948 2.38748C22.1436 2.52229 22.2903 2.71354 22.3571 2.93961C22.9617 4.88295 22.9705 12.8215 14.0386 13.6954C8.96144 8.27838 13.0782 2.18319 15.8837 0.318228Z" fill="#ECA0BC" fill-opacity="0.89"/>
<path d="M5.43578 2.9005C5.48911 2.60496 5.66257 2.34837 5.91587 2.1789C7.04514 1.42249 9.94391 0.292006 11.1577 0.0573512C11.3933 0.00950015 11.6378 0.0398671 11.8513 0.148606C13.7052 1.0659 19.5694 6.55237 14.0298 13.4649C6.5205 13.2997 4.87114 6.17416 5.43578 2.9005Z" fill="#FBE9F1" fill-opacity="0.89"/>
<path d="M27.8743 15.6992C27.8878 15.195 26.4739 13.8646 25.9848 13.4734C25.5314 13.9082 23.593 15.208 22.2059 15.5167C24.6556 15.9731 27.8743 15.6992 27.8743 15.6992Z" fill="#DF3D23"/>
<path d="M27.8166 11.0566C27.821 11.8653 25.9805 13.4696 25.9805 13.4696C25.9805 13.4696 24.0464 11.7784 22.2147 11.3348C24.6556 10.8306 27.8166 11.0566 27.8166 11.0566Z" fill="#F39418"/>
<path d="M22.2814 24.6424C22.7792 24.2642 22.6993 22.4382 22.6326 21.8209C21.9968 21.8209 19.6538 21.4253 18.4446 20.6948C19.8628 22.7033 22.2814 24.6424 22.2814 24.6424Z" fill="#0F6837"/>
<path d="M25.567 21.251C25.1047 21.9814 22.6327 21.8205 22.6327 21.8205C22.6327 21.8205 22.4727 19.2859 21.4944 17.7078C23.5886 19.0338 25.567 21.251 25.567 21.251Z" fill="#E63C30"/>
<path d="M11.9401 27.0634C12.5092 27.1156 13.803 25.7504 14.1941 25.2635C13.7407 24.8288 12.318 22.8116 11.9757 21.4595C11.5578 23.868 11.9401 27.0634 11.9401 27.0634Z" fill="#2C4292"/>
<path d="M16.6129 26.916C15.8304 26.9856 14.2031 25.2553 14.2031 25.2553C14.2031 25.2553 15.8214 23.2553 16.2484 21.4556C16.7995 23.8336 16.6129 26.916 16.6129 26.916Z" fill="#E42127"/>
<path d="M25.4425 5.39592C25.0512 5.00038 23.215 5.04378 22.5837 5.10896C22.5837 5.73072 22.2682 8.0653 21.5167 9.24777C23.5751 7.86531 25.4425 5.39592 25.4425 5.39592Z" fill="#E74235"/>
<path d="M21.8947 2.35278C22.0324 2.45707 22.188 2.58314 22.2769 2.75706C22.7126 3.60918 22.5793 5.10039 22.5793 5.10039C22.5793 5.10039 20.1739 5.2829 18.3867 6.33071C19.7428 4.28293 21.8947 2.35278 21.8947 2.35278Z" fill="#E31081"/>
<path d="M16.315 0.152873C15.7547 0.144284 14.4743 1.49194 14.0742 1.97014C14.5188 2.41368 15.8037 4.39168 16.1238 5.74808C16.5862 3.34831 16.315 0.152873 16.315 0.152873Z" fill="#F18D1C"/>
<path d="M11.5801 0.0529118C11.7534 0.0312868 11.949 0.200759 12.1225 0.296461C13.0249 0.800738 14.0519 1.97462 14.0519 1.97462C14.0519 1.97462 12.4736 3.76137 11.9625 5.73952C11.4512 3.35264 11.5801 0.0529118 11.5801 0.0529118Z" fill="#179E51"/>
<path d="M5.62693 2.45288C5.23121 2.83968 5.32014 4.67443 5.39574 5.28744C6.02703 5.283 8.4145 5.65691 9.63269 6.37851C8.19225 4.38303 5.62693 2.45288 5.62693 2.45288Z" fill="#CE1A81"/>
<path d="M2.43036 5.79581C2.53701 5.66099 2.76381 5.56974 2.955 5.5133C3.91519 5.23938 5.40473 5.28279 5.40473 5.28279C5.40473 5.28279 5.61803 7.63485 6.71624 9.36945C4.60436 8.0695 2.43036 5.79581 2.43036 5.79581Z" fill="#8CBE2E"/>
<path d="M0.162903 11.5522C0.176234 11.9913 1.57668 13.3432 2.08799 13.6911C2.53264 13.2477 4.51545 11.8695 5.89378 11.5392C3.43511 11.1217 0.162903 11.5522 0.162903 11.5522Z" fill="#169A50"/>
<path d="M0.331787 16.0081C0.331787 15.9038 0.456321 15.6647 0.549643 15.495C0.976412 14.7169 2.08796 13.6865 2.08796 13.6865C2.08796 13.6865 3.94199 15.1994 5.97374 15.669C3.53734 16.2081 0.331787 16.0081 0.331787 16.0081Z" fill="#2D4594"/>
<path d="M2.83936 21.7381C3.23491 22.1294 5.07562 22.038 5.70252 21.9685C5.69797 21.3467 6.06263 18.9948 6.79618 17.7993C4.75989 19.2122 2.83936 21.7381 2.83936 21.7381Z" fill="#8CC052"/>
<path d="M6.28932 24.8553C6.14706 24.7553 6.06707 24.6422 5.98708 24.464C5.62242 23.6249 5.69802 21.9643 5.69802 21.9643C5.69802 21.9643 8.12109 21.7555 9.89953 20.6816C8.57013 22.7468 6.28932 24.8553 6.28932 24.8553Z" fill="#086B33"/>
<path d="M22.686 21.8205C22.0947 18.2643 20.6186 14.9776 18.0889 17.4817C15.7458 19.8077 18.6979 21.4771 22.686 21.8205Z" fill="#FCC242"/>
<path d="M26.016 13.4735C23.0861 11.2911 19.7028 9.89986 19.6272 13.4169C19.5606 16.6775 22.8771 15.9081 26.016 13.4735Z" fill="#F2901A"/>
<path d="M22.677 4.9873C19.0492 5.60017 15.7058 7.07834 18.289 9.52166C20.6898 11.7911 22.3658 8.89131 22.677 4.9873Z" fill="#E83E8E"/>
<path d="M14.0919 1.95679C11.869 4.82616 10.4552 8.13893 14.0519 8.19982C17.3864 8.25626 16.5906 5.01312 14.0919 1.95679Z" fill="#FCE40F"/>
<path d="M5.33789 5.23486C5.94707 8.79118 7.43645 12.0691 9.95283 9.55189C12.2824 7.21731 9.32593 5.56093 5.33789 5.23486Z" fill="#FCFBEC"/>
<path d="M2.05237 13.7521C5.07128 15.8172 8.50347 17.0779 8.43681 13.5608C8.37015 10.3002 5.089 11.1957 2.05237 13.7521Z" fill="#32A2DC"/>
<path d="M5.72467 21.986C9.34821 21.3295 12.6737 19.8165 10.0595 17.3995C7.63642 15.1604 5.99146 18.0819 5.72467 21.986Z" fill="#85BC33"/>
<path d="M14.2698 25.2855C16.4217 22.3639 17.7555 19.0208 14.1587 19.0426C10.8197 19.0642 11.6957 22.2857 14.2698 25.2855Z" fill="#E83C8D"/>
</svg>
