<svg width="104" height="28" viewBox="0 0 104 28" fill="none" xmlns="http://www.w3.org/2000/svg">
<path d="M41.2863 18.6728L39.4525 15.9428H37.4286V18.6728H35.228V8.8728H39.3439C40.1861 8.8728 40.9173 9.01747 41.5376 9.3068C42.158 9.59614 42.6356 10.0068 42.9707 10.5388C43.3058 11.0708 43.4733 11.7008 43.4733 12.4288C43.4733 13.1568 43.3035 13.7845 42.9639 14.3118C42.6243 14.8391 42.1421 15.2428 41.5173 15.5228L43.6499 18.6728H41.2863ZM49.4365 18.8408C48.0782 18.8408 47.0209 18.4535 46.2647 17.6788C45.5086 16.9041 45.1305 15.7981 45.1305 14.3608V8.8728H47.3311V14.2768C47.3311 16.0315 48.0374 16.9088 49.4501 16.9088C50.1384 16.9088 50.6636 16.6965 51.0258 16.2718C51.3881 15.8471 51.5692 15.1821 51.5692 14.2768V8.8728H53.7425V14.3608C53.7425 15.7981 53.3645 16.9041 52.6083 17.6788C51.8522 18.4535 50.7949 18.8408 49.4365 18.8408ZM64.6366 18.6728V8.8728H62.4633V14.8228L57.7361 8.8728H55.9159V18.6728H58.0893V12.7228L62.83 18.6728H64.6366ZM73.1536 16.5728H68.7389L67.8967 18.6728H65.6418L69.8799 8.8728H72.0533L76.305 18.6728H73.9958L73.1536 16.5728ZM76.2235 10.7208H79.2662V18.6728H81.4668V10.7208H84.5095V8.8728H76.2235V10.7208ZM93.0537 16.8528V18.6728H85.6913V8.8728H92.8771V10.6928H87.8783V12.8208H92.293V14.5848H87.8783V16.8528H93.0537ZM98.5007 15.2708L100.796 18.6728H103.336L99.7912 13.6048L103.106 8.8728H100.728L98.5822 12.0508L96.3952 8.8728H93.8958L97.2374 13.6888L93.7193 18.6728H96.2458L98.5007 15.2708ZM41.2456 12.4288C41.2456 11.8781 41.0735 11.4558 40.7294 11.1618C40.3853 10.8678 39.8827 10.7208 39.2216 10.7208H37.4286V14.1368H39.2216C39.8827 14.1368 40.3853 13.9875 40.7294 13.6888C41.0735 13.3901 41.2456 12.9701 41.2456 12.4288ZM72.4608 14.8508L70.953 11.0988L69.4453 14.8508H72.4608Z" fill="#1C1D20"/>
<path d="M0.331742 12.296C0.153882 12.0405 0.0872237 11.7269 0.145099 11.4222C0.394008 10.0691 1.62554 7.17895 2.31471 6.13948C2.44802 5.93779 2.6436 5.78541 2.8704 5.7138C4.84442 5.05955 12.9582 4.87145 14.0475 13.8552C8.619 19.0931 2.30137 15.0785 0.331742 12.296Z" fill="#A0C645" fill-opacity="0.89"/>
<path d="M12.4869 27.6913C12.238 27.8705 11.9222 27.9333 11.6244 27.8751C10.2818 27.6196 7.4141 26.3785 6.3827 25.6839C6.18257 25.5496 6.03137 25.3523 5.96032 25.1239C5.3157 23.1344 5.13784 14.9526 14.0518 13.8684C19.2404 19.3438 15.2523 25.7064 12.4869 27.6913Z" fill="#0A8CD1" fill-opacity="0.89"/>
<path d="M27.7186 15.7593C27.892 16.0145 27.9497 16.3283 27.8831 16.6329C27.603 17.9771 26.3048 20.8404 25.5935 21.862C25.4556 22.0635 25.2555 22.2069 25.0243 22.2787C23.0415 22.8836 14.9188 22.879 14.043 13.8729C19.5914 8.76484 25.8157 12.9274 27.7186 15.7593Z" fill="#F23E3A" fill-opacity="0.89"/>
<path d="M22.5613 24.8278C22.508 25.1324 22.3301 25.3969 22.0768 25.5716C20.943 26.3379 18.0355 27.4848 16.8173 27.7178C16.5815 27.7627 16.337 27.7268 16.1237 27.6193C14.283 26.6605 8.4544 20.9566 14.0474 13.877C21.5611 14.1055 23.1528 21.4583 22.5613 24.8278Z" fill="#FFB921" fill-opacity="0.89"/>
<path d="M24.9578 5.33724C25.2601 5.39098 25.5269 5.57023 25.6959 5.8301C26.4517 6.97721 27.572 9.91208 27.7988 11.1398C27.8432 11.3772 27.8076 11.6237 27.6965 11.8388C26.7362 13.6893 21.0542 19.5366 14.0564 13.864C14.3186 6.29609 21.6189 4.72788 24.9578 5.33724Z" fill="#F3A044" fill-opacity="0.89"/>
<path d="M3.30619 22.6103C3.0038 22.5611 2.73717 22.3863 2.5637 22.1309C1.7856 21.0018 0.607556 18.0849 0.354098 16.8616C0.309554 16.6242 0.336375 16.3822 0.443028 16.1627C1.37216 14.2897 6.93851 8.33934 14.0476 13.8686C13.932 21.4409 6.65839 23.1571 3.30619 22.6103Z" fill="#71D3FA" fill-opacity="0.89"/>
<path d="M15.8837 0.327684C16.1372 0.15286 16.4527 0.0945321 16.7507 0.157286C18.0889 0.444181 20.9298 1.74351 21.948 2.46036C22.1436 2.5993 22.2903 2.79641 22.3571 3.02941C22.9617 5.0323 22.9705 13.2141 14.0386 14.1148C8.96144 8.5318 13.0782 2.24981 15.8837 0.327684Z" fill="#ECA0BC" fill-opacity="0.89"/>
<path d="M5.43572 2.98904C5.48904 2.68445 5.66251 2.42 5.91581 2.24533C7.04508 1.46573 9.94385 0.300602 11.1577 0.0587564C11.3932 0.00943878 11.6377 0.0407364 11.8512 0.152808C13.7051 1.09822 19.5693 6.75283 14.0298 13.8772C6.52044 13.7069 4.87108 6.36303 5.43572 2.98904Z" fill="#FBE9F1" fill-opacity="0.89"/>
<path d="M27.8743 16.18C27.8878 15.6603 26.4738 14.2892 25.9848 13.886C25.5313 14.3341 23.5929 15.6738 22.2058 15.9919C24.6555 16.4624 27.8743 16.18 27.8743 16.18Z" fill="#DF3D23"/>
<path d="M27.8165 11.3953C27.8209 12.2288 25.9804 13.8822 25.9804 13.8822C25.9804 13.8822 24.0464 12.1392 22.2146 11.6821C24.6555 11.1623 27.8165 11.3953 27.8165 11.3953Z" fill="#F39418"/>
<path d="M22.2814 25.3972C22.7792 25.0074 22.6993 23.1254 22.6326 22.4892C21.9968 22.4892 19.6538 22.0815 18.4446 21.3286C19.8628 23.3987 22.2814 25.3972 22.2814 25.3972Z" fill="#0F6837"/>
<path d="M25.567 21.9021C25.1046 22.6548 22.6326 22.489 22.6326 22.489C22.6326 22.489 22.4726 19.8768 21.4944 18.2502C23.5885 19.6169 25.567 21.9021 25.567 21.9021Z" fill="#E63C30"/>
<path d="M11.9401 27.8929C12.5092 27.9466 13.803 26.5397 14.1941 26.0378C13.7407 25.5898 12.318 23.5107 11.9757 22.1172C11.5578 24.5995 11.9401 27.8929 11.9401 27.8929Z" fill="#2C4292"/>
<path d="M16.6129 27.7408C15.8304 27.8125 14.2031 26.0292 14.2031 26.0292C14.2031 26.0292 15.8214 23.968 16.2484 22.113C16.7995 24.5639 16.6129 27.7408 16.6129 27.7408Z" fill="#E42127"/>
<path d="M25.4424 5.5608C25.0511 5.15314 23.2149 5.19787 22.5836 5.26505C22.5836 5.90587 22.268 8.312 21.5166 9.53071C23.575 8.10587 25.4424 5.5608 25.4424 5.5608Z" fill="#E74235"/>
<path d="M21.8947 2.42456C22.0324 2.53205 22.188 2.66198 22.2769 2.84123C22.7126 3.71946 22.5793 5.25637 22.5793 5.25637C22.5793 5.25637 20.1739 5.44447 18.3867 6.5244C19.7428 4.41386 21.8947 2.42456 21.8947 2.42456Z" fill="#E31081"/>
<path d="M16.315 0.157513C15.7548 0.148661 14.4743 1.53762 14.0742 2.03048C14.5189 2.48761 15.8037 4.52623 16.1238 5.9242C16.5862 3.45089 16.315 0.157513 16.315 0.157513Z" fill="#F18D1C"/>
<path d="M11.5799 0.053702C11.7532 0.0314142 11.9488 0.206081 12.1223 0.304716C13.0248 0.824448 14.0518 2.03431 14.0518 2.03431C14.0518 2.03431 12.4735 3.87582 11.9623 5.9146C11.451 3.45456 11.5799 0.053702 11.5799 0.053702Z" fill="#179E51"/>
<path d="M5.62693 2.52783C5.23121 2.92648 5.32014 4.81747 5.39574 5.44927C6.02703 5.44468 8.4145 5.83006 9.63269 6.57377C8.19225 4.51713 5.62693 2.52783 5.62693 2.52783Z" fill="#CE1A81"/>
<path d="M2.43042 5.97347C2.53707 5.83453 2.76387 5.74048 2.95506 5.68231C3.91525 5.4 5.40479 5.44473 5.40479 5.44473C5.40479 5.44473 5.61809 7.86888 6.71631 9.65664C4.60442 8.31685 2.43042 5.97347 2.43042 5.97347Z" fill="#8CBE2E"/>
<path d="M0.162842 11.9058C0.176173 12.3584 1.57662 13.7518 2.08793 14.1103C2.53258 13.6533 4.51539 12.2329 5.89372 11.8924C3.43505 11.4621 0.162842 11.9058 0.162842 11.9058Z" fill="#169A50"/>
<path d="M0.331787 16.4982C0.331787 16.3907 0.456321 16.1442 0.549643 15.9694C0.976412 15.1674 2.08796 14.1055 2.08796 14.1055C2.08796 14.1055 3.94199 15.6647 5.97374 16.1487C3.53734 16.7043 0.331787 16.4982 0.331787 16.4982Z" fill="#2D4594"/>
<path d="M2.83936 22.4038C3.23491 22.807 5.07562 22.7128 5.70252 22.6412C5.69797 22.0004 6.06263 19.5764 6.79618 18.3442C4.75989 19.8004 2.83936 22.4038 2.83936 22.4038Z" fill="#8CC052"/>
<path d="M6.2892 25.6165C6.14694 25.5134 6.06695 25.3969 5.98696 25.2132C5.6223 24.3485 5.6979 22.6369 5.6979 22.6369C5.6979 22.6369 8.12096 22.4217 9.8994 21.3149C8.57 23.4433 6.2892 25.6165 6.2892 25.6165Z" fill="#086B33"/>
<path d="M22.6859 22.489C22.0946 18.8238 20.6186 15.4364 18.0888 18.0172C15.7458 20.4145 18.6979 22.135 22.6859 22.489Z" fill="#FCC242"/>
<path d="M26.016 13.8859C23.0861 11.6366 19.7028 10.2027 19.6272 13.8276C19.5606 17.1881 22.8771 16.3951 26.016 13.8859Z" fill="#F2901A"/>
<path d="M22.6769 5.14014C19.0492 5.77178 15.7058 7.29525 18.289 9.81346C20.6897 12.1524 22.3658 9.16379 22.6769 5.14014Z" fill="#E83E8E"/>
<path d="M14.0919 2.0166C11.869 4.97392 10.4552 8.38822 14.0519 8.45097C17.3864 8.50914 16.5906 5.16661 14.0919 2.0166Z" fill="#FCE40F"/>
<path d="M5.33789 5.39526C5.94707 9.06057 7.43645 12.439 9.95283 9.8446C12.2824 7.43847 9.32593 5.73132 5.33789 5.39526Z" fill="#FCFBEC"/>
<path d="M2.05225 14.1733C5.07116 16.3017 8.50335 17.601 8.43669 13.9762C8.37003 10.6156 5.08888 11.5386 2.05225 14.1733Z" fill="#32A2DC"/>
<path d="M5.72461 22.6596C9.34815 21.9831 12.6737 20.4238 10.0594 17.9326C7.63636 15.6249 5.9914 18.636 5.72461 22.6596Z" fill="#85BC33"/>
<path d="M14.2697 26.0598C16.4215 23.0487 17.7553 19.6032 14.1586 19.6256C10.8196 19.6479 11.6956 22.9681 14.2697 26.0598Z" fill="#E83C8D"/>
</svg>
