<svg width="30" height="30" viewBox="0 0 30 30" fill="none" xmlns="http://www.w3.org/2000/svg">
<path d="M16.25 10C17.2446 10 18.1984 10.3951 18.9017 11.0983C19.6049 11.8016 20 12.7554 20 13.75C20 14.0815 20.1317 14.3995 20.3661 14.6339C20.6005 14.8683 20.9185 15 21.25 15C21.5815 15 21.8995 14.8683 22.1339 14.6339C22.3683 14.3995 22.5 14.0815 22.5 13.75C22.5 12.0924 21.8415 10.5027 20.6694 9.33058C19.4973 8.15848 17.9076 7.5 16.25 7.5C15.9185 7.5 15.6005 7.6317 15.3661 7.86612C15.1317 8.10054 15 8.41848 15 8.75C15 9.08152 15.1317 9.39946 15.3661 9.63388C15.6005 9.8683 15.9185 10 16.25 10Z" fill="#FDFDFD"/>
<path d="M16.25 5C18.5706 5 20.7962 5.92187 22.4372 7.56282C24.0781 9.20376 25 11.4294 25 13.75C25 14.0815 25.1317 14.3995 25.3661 14.6339C25.6005 14.8683 25.9185 15 26.25 15C26.5815 15 26.8995 14.8683 27.1339 14.6339C27.3683 14.3995 27.5 14.0815 27.5 13.75C27.5 10.7663 26.3147 7.90483 24.205 5.79505C22.0952 3.68526 19.2337 2.5 16.25 2.5C15.9185 2.5 15.6005 2.6317 15.3661 2.86612C15.1317 3.10054 15 3.41848 15 3.75C15 4.08152 15.1317 4.39946 15.3661 4.63388C15.6005 4.8683 15.9185 5 16.25 5ZM27.1875 19.8875C27.1187 19.6868 27.0001 19.507 26.8426 19.3648C26.6852 19.2227 26.4941 19.1229 26.2875 19.075L18.7875 17.3625C18.5839 17.3163 18.372 17.3219 18.1711 17.3787C17.9703 17.4354 17.7868 17.5416 17.6375 17.6875C17.4625 17.85 17.45 17.8625 16.6375 19.4125C13.9415 18.1702 11.7812 16.0011 10.55 13.3C12.1375 12.5 12.15 12.5 12.3125 12.3125C12.4584 12.1632 12.5646 11.9797 12.6213 11.7789C12.6781 11.578 12.6837 11.3661 12.6375 11.1625L10.925 3.75C10.8771 3.54337 10.7773 3.35234 10.6352 3.19489C10.493 3.03744 10.3132 2.91875 10.1125 2.85C9.82058 2.74574 9.51914 2.67038 9.2125 2.625C8.89656 2.55174 8.57417 2.50987 8.25 2.5C6.72501 2.5 5.26247 3.1058 4.18414 4.18414C3.1058 5.26247 2.5 6.725 2.5 8.25C2.50661 13.3534 4.53686 18.2459 8.1455 21.8545C11.7541 25.4631 16.6466 27.4934 21.75 27.5C22.5051 27.5 23.2528 27.3513 23.9504 27.0623C24.6481 26.7733 25.2819 26.3498 25.8159 25.8159C26.3498 25.2819 26.7733 24.648 27.0623 23.9504C27.3513 23.2528 27.5 22.5051 27.5 21.75C27.5004 21.4318 27.4753 21.1142 27.425 20.8C27.3725 20.4895 27.293 20.1842 27.1875 19.8875Z" fill="#FDFDFD"/>
</svg>
