<svg width="24" height="24" viewBox="0 0 24 24" fill="none" xmlns="http://www.w3.org/2000/svg">
<path d="M21.9656 6.54374C21.8795 6.19811 21.7108 5.87852 21.474 5.61238C21.2373 5.34623 20.9395 5.14146 20.6063 5.01562C17.4 3.77812 12.2812 3.78749 12 3.78749C11.7188 3.78749 6.6 3.77812 3.39375 5.01562C3.06051 5.14146 2.76275 5.34623 2.52599 5.61238C2.28923 5.87852 2.12054 6.19811 2.03438 6.54374C1.79063 7.47187 1.5 9.17812 1.5 12C1.5 14.8219 1.79063 16.5281 2.03438 17.4562C2.12054 17.8019 2.28923 18.1215 2.52599 18.3876C2.76275 18.6538 3.06051 18.8585 3.39375 18.9844C6.46875 20.175 11.2875 20.2125 11.9344 20.2125H12.0656C12.7125 20.2125 17.5312 20.175 20.6063 18.9844C20.9395 18.8585 21.2373 18.6538 21.474 18.3876C21.7108 18.1215 21.8795 17.8019 21.9656 17.4562C22.2094 16.5281 22.5 14.8219 22.5 12C22.5 9.17812 22.2094 7.47187 21.9656 6.54374ZM15.2062 12.3094L10.7062 15.3094C10.6466 15.3533 10.5741 15.3764 10.5 15.375C10.4379 15.3727 10.3771 15.3567 10.3219 15.3281C10.262 15.2969 10.2118 15.2498 10.1771 15.1919C10.1423 15.1339 10.1243 15.0675 10.125 15V8.99999C10.1243 8.93245 10.1423 8.86604 10.1771 8.80812C10.2118 8.7502 10.262 8.70304 10.3219 8.67187C10.3817 8.63997 10.449 8.62488 10.5167 8.62818C10.5843 8.63148 10.6499 8.65306 10.7062 8.69062L15.2062 11.6906C15.2585 11.7236 15.3016 11.7692 15.3315 11.8233C15.3614 11.8774 15.377 11.9382 15.377 12C15.377 12.0618 15.3614 12.1226 15.3315 12.1767C15.3016 12.2308 15.2585 12.2764 15.2062 12.3094Z" fill="#DDDEE6"/>
</svg>
