<svg width="42" height="42" fill="none" xmlns="http://www.w3.org/2000/svg"><path d="M24.027 6.143l3.08 6.16c.42.857 1.54 1.68 2.486 1.837l5.582.928c3.57.595 4.41 3.185 1.838 5.74l-4.34 4.34c-.736.735-1.138 2.152-.91 3.167l1.242 5.372c.98 4.253-1.278 5.898-5.04 3.675l-5.232-3.097c-.945-.56-2.503-.56-3.466 0l-5.232 3.097c-3.745 2.223-6.02.56-5.04-3.675l1.243-5.372c.227-1.015-.175-2.433-.91-3.168l-4.34-4.34c-2.556-2.554-1.733-5.144 1.837-5.74l5.583-.927c.927-.158 2.047-.98 2.467-1.838l3.08-6.16c1.68-3.342 4.41-3.342 6.073 0z" stroke="#1C1D20" stroke-width="1.5" stroke-linecap="round" stroke-linejoin="round"/></svg>