<svg width="42" height="42" fill="none" xmlns="http://www.w3.org/2000/svg"><path d="M14.665 21l4.218 4.235 8.452-8.47" stroke="#1C1D20" stroke-width="1.5" stroke-linecap="round" stroke-linejoin="round"/><path d="M18.813 4.287c1.207-1.032 3.184-1.032 4.41 0l2.765 2.38c.524.455 1.505.823 2.204.823h2.976a3.39 3.39 0 013.377 3.377v2.975c0 .683.367 1.68.822 2.205l2.38 2.765c1.033 1.208 1.033 3.185 0 4.41l-2.38 2.765c-.454.526-.822 1.506-.822 2.206v2.974a3.39 3.39 0 01-3.378 3.378h-2.975c-.682 0-1.68.367-2.204.822l-2.765 2.38c-1.208 1.033-3.185 1.033-4.41 0l-2.765-2.38c-.525-.454-1.505-.822-2.205-.822h-3.028a3.39 3.39 0 01-3.377-3.378v-2.992c0-.683-.368-1.663-.805-2.188L4.27 23.206c-1.015-1.207-1.015-3.167 0-4.375l2.363-2.782c.437-.525.804-1.505.804-2.188v-3.01a3.39 3.39 0 013.378-3.377h3.027c.683 0 1.68-.368 2.205-.823l2.765-2.363z" stroke="#1C1D20" stroke-width="1.5" stroke-linecap="round" stroke-linejoin="round"/></svg>