<svg width="42" height="42" fill="none" xmlns="http://www.w3.org/2000/svg"><path d="M6.125 35.875a3.707 3.707 0 005.25 0l22.75-22.75a3.707 3.707 0 000-5.25 3.707 3.707 0 00-5.25 0l-22.75 22.75a3.707 3.707 0 000 5.25zm25.392-20.143l-5.25-5.25" stroke="#1C1D20" stroke-width="1.5" stroke-linecap="round" stroke-linejoin="round"/><path d="M14.875 4.27L17.5 3.5l-.77 2.625.77 2.625-2.625-.77-2.625.77.77-2.625-.77-2.625 2.625.77zm-7 10.5L10.5 14l-.77 2.625.77 2.625-2.625-.77-2.625.77.77-2.625L5.25 14l2.625.77zm26.25 8.75l2.625-.77-.77 2.625.77 2.625-2.625-.77L31.5 28l.77-2.625-.77-2.625 2.625.77z" stroke="#1C1D20" stroke-linecap="round" stroke-linejoin="round"/></svg>