<svg width="104" height="28" fill="none" xmlns="http://www.w3.org/2000/svg"><path d="M41.286 18.673l-1.834-2.73H37.43v2.73h-2.201v-9.8h4.116c.842 0 1.573.144 2.194.434.62.29 1.098.7 1.433 1.232.335.532.502 1.162.502 1.89s-.17 1.355-.51 1.883c-.339.527-.82.93-1.446 1.21l2.133 3.15h-2.364zm8.15.168c-1.358 0-2.415-.388-3.171-1.162-.756-.775-1.135-1.88-1.135-3.318V8.873h2.201v5.404c0 1.755.706 2.632 2.12 2.632.687 0 1.213-.212 1.575-.637.362-.425.543-1.09.543-1.995V8.873h2.173v5.488c0 1.437-.377 2.543-1.134 3.318-.756.774-1.813 1.162-3.171 1.162zm15.2-.168v-9.8h-2.173v5.95l-4.727-5.95h-1.82v9.8h2.173v-5.95l4.741 5.95h1.807zm8.518-2.1h-4.415l-.842 2.1h-2.255l4.238-9.8h2.173l4.252 9.8h-2.31l-.841-2.1zm3.07-5.852h3.042v7.952h2.2V10.72h3.044V8.873h-8.287v1.848zm16.83 6.132v1.82H85.69v-9.8h7.186v1.82h-4.999v2.128h4.415v1.764h-4.415v2.268h5.176zM98.5 15.27l2.295 3.402h2.54l-3.545-5.068 3.315-4.732h-2.378l-2.146 3.178-2.187-3.178h-2.5l3.342 4.816-3.518 4.984h2.527L98.5 15.27zm-57.255-2.842c0-.55-.172-.973-.517-1.267-.344-.294-.846-.441-1.507-.441h-1.793v3.416h1.793c.66 0 1.163-.15 1.507-.448.345-.299.517-.719.517-1.26zM72.46 14.85l-1.508-3.752-1.508 3.752h3.016z" fill="#1C1D20"/><path d="M.332 12.296a1.15 1.15 0 01-.187-.874c.249-1.353 1.48-4.243 2.17-5.283a1.05 1.05 0 01.555-.425c1.974-.654 10.088-.843 11.177 8.141C8.62 19.093 2.301 15.078.332 12.296z" fill="#A0C645" fill-opacity=".89"/><path d="M12.487 27.691c-.249.18-.565.242-.863.184-1.342-.255-4.21-1.497-5.241-2.191a1.057 1.057 0 01-.423-.56c-.644-1.99-.822-10.171 8.092-11.256 5.188 5.476 1.2 11.838-1.565 13.823z" fill="#0A8CD1" fill-opacity=".89"/><path d="M27.719 15.76c.173.255.23.568.164.873-.28 1.344-1.578 4.207-2.29 5.229a1.068 1.068 0 01-.569.417c-1.983.605-10.105.6-10.981-8.406 5.548-5.108 11.773-.946 13.676 1.886z" fill="#F23E3A" fill-opacity=".89"/><path d="M22.561 24.828c-.053.304-.23.569-.484.744-1.134.766-4.042 1.913-5.26 2.146a1.09 1.09 0 01-.693-.099c-1.841-.959-7.67-6.662-2.077-13.742 7.514.228 9.106 7.581 8.514 10.95z" fill="#FFB921" fill-opacity=".89"/><path d="M24.958 5.337c.302.054.569.233.738.493.756 1.147 1.876 4.082 2.103 5.31.044.237.009.484-.102.699-.96 1.85-6.643 7.698-13.64 2.025.262-7.568 7.562-9.136 10.9-8.527z" fill="#F3A044" fill-opacity=".89"/><path d="M3.306 22.61a1.116 1.116 0 01-.742-.48c-.778-1.128-1.956-4.045-2.21-5.268a1.115 1.115 0 01.089-.7c.93-1.872 6.496-7.823 13.605-2.293-.116 7.572-7.39 9.288-10.742 8.741z" fill="#71D3FA" fill-opacity=".89"/><path d="M15.884.328a1.12 1.12 0 01.867-.17c1.338.286 4.179 1.586 5.197 2.302.196.14.342.336.41.57.604 2.002.613 10.184-8.32 11.085C8.962 8.532 13.079 2.25 15.885.328z" fill="#ECA0BC" fill-opacity=".89"/><path d="M5.436 2.989a1.14 1.14 0 01.48-.744C7.046 1.465 9.944.301 11.158.06c.235-.05.48-.018.693.094 1.854.945 7.718 6.6 2.179 13.724-7.51-.17-9.159-7.514-8.594-10.888z" fill="#FBE9F1" fill-opacity=".89"/><path d="M27.874 16.18c.014-.52-1.4-1.89-1.89-2.294-.453.448-2.391 1.788-3.778 2.106 2.45.47 5.668.188 5.668.188z" fill="#DF3D23"/><path d="M27.817 11.395c.004.834-1.837 2.487-1.837 2.487s-1.934-1.743-3.765-2.2c2.44-.52 5.602-.287 5.602-.287z" fill="#F39418"/><path d="M22.281 25.397c.498-.39.418-2.272.352-2.908-.636 0-2.98-.408-4.188-1.16 1.418 2.07 3.836 4.068 3.836 4.068z" fill="#0F6837"/><path d="M25.567 21.902c-.462.753-2.934.587-2.934.587s-.16-2.612-1.139-4.239c2.095 1.367 4.073 3.652 4.073 3.652z" fill="#E63C30"/><path d="M11.94 27.893c.57.054 1.863-1.353 2.254-1.855-.453-.448-1.876-2.527-2.218-3.92-.418 2.482-.036 5.775-.036 5.775z" fill="#2C4292"/><path d="M16.613 27.74c-.783.073-2.41-1.71-2.41-1.71s1.618-2.062 2.045-3.917c.551 2.45.365 5.628.365 5.628z" fill="#E42127"/><path d="M25.442 5.56c-.39-.407-2.227-.362-2.858-.295 0 .64-.316 3.047-1.067 4.266 2.058-1.425 3.925-3.97 3.925-3.97z" fill="#E74235"/><path d="M21.895 2.425c.137.107.293.237.382.416.436.878.302 2.415.302 2.415s-2.405.188-4.192 1.268c1.356-2.11 3.508-4.1 3.508-4.1z" fill="#E31081"/><path d="M16.315.158c-.56-.01-1.84 1.38-2.24 1.872.444.458 1.729 2.496 2.049 3.894.462-2.473.191-5.766.191-5.766z" fill="#F18D1C"/><path d="M11.58.054c.173-.023.369.152.542.25.903.52 1.93 1.73 1.93 1.73s-1.579 1.842-2.09 3.88c-.511-2.46-.382-5.86-.382-5.86z" fill="#179E51"/><path d="M5.627 2.528c-.396.398-.307 2.29-.231 2.921.631-.004 3.019.381 4.237 1.125-1.44-2.057-4.006-4.046-4.006-4.046z" fill="#CE1A81"/><path d="M2.43 5.973c.107-.138.334-.233.525-.29.96-.283 2.45-.238 2.45-.238s.213 2.424 1.311 4.212C4.604 8.317 2.43 5.973 2.43 5.973z" fill="#8CBE2E"/><path d="M.163 11.906c.013.452 1.414 1.846 1.925 2.204.445-.457 2.427-1.877 3.806-2.218-2.459-.43-5.731.014-5.731.014z" fill="#169A50"/><path d="M.332 16.498c0-.107.124-.354.218-.529.426-.802 1.538-1.864 1.538-1.864s1.854 1.56 3.886 2.044c-2.437.555-5.642.35-5.642.35z" fill="#2D4594"/><path d="M2.84 22.404c.395.403 2.236.309 2.863.237-.005-.64.36-3.065 1.093-4.297-2.036 1.456-3.957 4.06-3.957 4.06z" fill="#8CC052"/><path d="M6.29 25.616c-.143-.103-.223-.22-.303-.403-.365-.864-.29-2.576-.29-2.576s2.424-.215 4.202-1.322c-1.329 2.128-3.61 4.301-3.61 4.301z" fill="#086B33"/><path d="M22.686 22.489c-.591-3.665-2.067-7.053-4.597-4.472-2.343 2.398.609 4.118 4.597 4.472z" fill="#FCC242"/><path d="M26.016 13.886c-2.93-2.25-6.313-3.683-6.389-.058-.066 3.36 3.25 2.567 6.389.058z" fill="#F2901A"/><path d="M22.677 5.14c-3.628.632-6.971 2.155-4.388 4.673 2.4 2.34 4.077-.65 4.388-4.673z" fill="#E83E8E"/><path d="M14.092 2.017c-2.223 2.957-3.637 6.371-.04 6.434 3.334.058 2.539-3.284.04-6.434z" fill="#FCE40F"/><path d="M5.338 5.395c.61 3.666 2.098 7.044 4.615 4.45 2.33-2.407-.627-4.114-4.615-4.45z" fill="#FCFBEC"/><path d="M2.052 14.173c3.02 2.129 6.451 3.428 6.385-.197-.067-3.36-3.348-2.437-6.385.197z" fill="#32A2DC"/><path d="M5.725 22.66c3.623-.677 6.949-2.236 4.334-4.727-2.423-2.308-4.068.703-4.334 4.727z" fill="#85BC33"/><path d="M14.27 26.06c2.152-3.011 3.485-6.457-.111-6.434-3.34.022-2.463 3.342.11 6.434z" fill="#E83C8D"/></svg>