<svg width="104" height="28" fill="none" xmlns="http://www.w3.org/2000/svg"><path d="M41.286 18.118l-1.834-2.649H37.43v2.649h-2.201V8.609h4.116c.842 0 1.573.14 2.194.421.62.281 1.098.68 1.433 1.196.335.516.502 1.127.502 1.834 0 .706-.17 1.315-.51 1.827-.339.511-.82.903-1.446 1.175l2.133 3.056h-2.364zm8.15.163c-1.358 0-2.415-.376-3.171-1.127-.756-.752-1.135-1.825-1.135-3.22V8.61h2.201v5.244c0 1.702.706 2.553 2.12 2.553.687 0 1.213-.206 1.575-.618.362-.412.543-1.057.543-1.935V8.609h2.173v5.325c0 1.395-.377 2.468-1.134 3.22-.756.751-1.813 1.127-3.171 1.127zm15.2-.163V8.609h-2.173v5.773L57.736 8.61h-1.82v9.509h2.173v-5.773l4.741 5.773h1.807zm8.518-2.038h-4.415l-.842 2.038h-2.255l4.238-9.509h2.173l4.252 9.509h-2.31l-.841-2.038zm3.07-5.678h3.042v7.716h2.2v-7.716h3.044V8.61h-8.287v1.793zm16.83 5.95v1.766H85.69V8.609h7.186v1.766h-4.999v2.065h4.415v1.712h-4.415v2.2h5.176zm5.447-1.535l2.295 3.301h2.54l-3.545-4.917 3.315-4.592h-2.378l-2.146 3.084-2.187-3.084h-2.5l3.342 4.673-3.518 4.836h2.527l2.255-3.3zM41.246 12.06c0-.535-.172-.944-.517-1.23-.344-.285-.846-.428-1.507-.428h-1.793v3.315h1.793c.66 0 1.163-.145 1.507-.435.345-.29.517-.697.517-1.222zm31.215 2.35l-1.508-3.64-1.508 3.64h3.016z" fill="#DDDEE6"/><path d="M.332 11.93a1.09 1.09 0 01-.187-.848c.25-1.312 1.48-4.117 2.17-5.125.133-.196.329-.344.555-.413 1.974-.635 10.088-.817 11.178 7.9C8.618 18.524 2.3 14.63.332 11.93z" fill="#A0C645" fill-opacity=".89"/><path d="M12.487 26.868a1.142 1.142 0 01-.863.178c-1.342-.248-4.21-1.452-5.241-2.126-.2-.13-.352-.322-.423-.543-.644-1.93-.822-9.869 8.092-10.92 5.188 5.312 1.2 11.485-1.565 13.41z" fill="#0A8CD1" fill-opacity=".89"/><path d="M27.719 15.29c.173.248.23.553.164.848-.28 1.304-1.578 4.083-2.29 5.074a1.067 1.067 0 01-.569.404c-1.982.587-10.105.583-10.98-8.156 5.548-4.956 11.772-.917 13.675 1.83z" fill="#F23E3A" fill-opacity=".89"/><path d="M22.561 24.09a1.11 1.11 0 01-.484.722c-1.134.743-4.041 1.856-5.26 2.082a1.12 1.12 0 01-.693-.095c-1.84-.93-7.67-6.465-2.076-13.334 7.513.222 9.105 7.356 8.513 10.625z" fill="#FFB921" fill-opacity=".89"/><path d="M24.958 5.179c.302.052.57.226.738.478.756 1.113 1.876 3.96 2.103 5.152.044.23.009.47-.102.678-.96 1.795-6.643 7.469-13.64 1.965.262-7.343 7.562-8.865 10.9-8.273z" fill="#F3A044" fill-opacity=".89"/><path d="M3.306 21.938a1.12 1.12 0 01-.742-.465c-.778-1.095-1.956-3.925-2.21-5.112a1.053 1.053 0 01.089-.679c.93-1.817 6.496-7.59 13.605-2.226-.116 7.348-7.39 9.013-10.742 8.482z" fill="#71D3FA" fill-opacity=".89"/><path d="M15.884.318a1.15 1.15 0 01.867-.165c1.338.278 4.179 1.539 5.197 2.234.196.135.342.327.41.553.604 1.943.613 9.882-8.32 10.755-5.077-5.417-.96-11.512 1.846-13.377z" fill="#ECA0BC" fill-opacity=".89"/><path d="M5.436 2.9c.053-.295.227-.552.48-.721C7.046 1.422 9.944.292 11.158.057c.235-.047.48-.017.693.092 1.854.917 7.718 6.403 2.179 13.316C6.52 13.3 4.87 6.175 5.436 2.9z" fill="#FBE9F1" fill-opacity=".89"/><path d="M27.874 15.7c.014-.505-1.4-1.835-1.89-2.227-.453.435-2.391 1.735-3.778 2.044 2.45.456 5.668.182 5.668.182z" fill="#DF3D23"/><path d="M27.817 11.057c.004.808-1.837 2.413-1.837 2.413s-1.934-1.692-3.765-2.135c2.44-.504 5.602-.278 5.602-.278z" fill="#F39418"/><path d="M22.281 24.642c.498-.378.418-2.204.352-2.821-.636 0-2.98-.396-4.188-1.126 1.418 2.008 3.836 3.947 3.836 3.947z" fill="#0F6837"/><path d="M25.567 21.251c-.462.73-2.934.57-2.934.57s-.16-2.535-1.139-4.113c2.095 1.326 4.073 3.543 4.073 3.543z" fill="#E63C30"/><path d="M11.94 27.063c.57.053 1.863-1.313 2.254-1.8-.453-.434-1.876-2.451-2.218-3.804-.418 2.409-.036 5.604-.036 5.604z" fill="#2C4292"/><path d="M16.613 26.916c-.783.07-2.41-1.66-2.41-1.66s1.618-2 2.045-3.8c.551 2.378.365 5.46.365 5.46z" fill="#E42127"/><path d="M25.442 5.396c-.39-.396-2.227-.352-2.858-.287 0 .622-.316 2.956-1.067 4.139 2.058-1.383 3.925-3.852 3.925-3.852z" fill="#E74235"/><path d="M21.895 2.353c.137.104.293.23.382.404.436.852.302 2.343.302 2.343s-2.405.183-4.192 1.23c1.356-2.047 3.508-3.977 3.508-3.977z" fill="#E31081"/><path d="M16.315.153c-.56-.009-1.84 1.339-2.24 1.817.444.444 1.729 2.422 2.049 3.778.462-2.4.191-5.595.191-5.595z" fill="#F18D1C"/><path d="M11.58.053c.173-.022.369.148.543.243.902.505 1.929 1.679 1.929 1.679s-1.578 1.786-2.09 3.765c-.51-2.387-.382-5.687-.382-5.687z" fill="#179E51"/><path d="M5.627 2.453c-.396.387-.307 2.221-.231 2.834.631-.004 3.019.37 4.237 1.092-1.44-1.996-4.006-3.926-4.006-3.926z" fill="#CE1A81"/><path d="M2.43 5.796c.107-.135.334-.226.525-.283.96-.274 2.45-.23 2.45-.23s.213 2.352 1.311 4.086C4.604 8.07 2.43 5.796 2.43 5.796z" fill="#8CBE2E"/><path d="M.163 11.552c.013.44 1.414 1.791 1.925 2.14.445-.444 2.427-1.822 3.806-2.153-2.459-.417-5.731.013-5.731.013z" fill="#169A50"/><path d="M.332 16.008c0-.104.124-.343.218-.513.426-.778 1.538-1.808 1.538-1.808s1.854 1.512 3.886 1.982c-2.437.54-5.642.34-5.642.34z" fill="#2D4594"/><path d="M2.84 21.738c.395.391 2.236.3 2.863.23-.005-.621.36-2.973 1.093-4.169-2.036 1.413-3.957 3.94-3.957 3.94z" fill="#8CC052"/><path d="M6.29 24.855a.857.857 0 01-.303-.391c-.365-.84-.289-2.5-.289-2.5s2.423-.208 4.202-1.282c-1.33 2.065-3.61 4.173-3.61 4.173z" fill="#086B33"/><path d="M22.686 21.82c-.591-3.556-2.067-6.842-4.597-4.338-2.343 2.326.609 3.995 4.597 4.338z" fill="#FCC242"/><path d="M26.016 13.473c-2.93-2.182-6.313-3.573-6.389-.056-.066 3.26 3.25 2.491 6.389.056z" fill="#F2901A"/><path d="M22.677 4.987c-3.628.613-6.971 2.091-4.388 4.535 2.4 2.27 4.077-.63 4.388-4.535z" fill="#E83E8E"/><path d="M14.092 1.957c-2.223 2.87-3.637 6.182-.04 6.243 3.334.056 2.539-3.187.04-6.243z" fill="#FCE40F"/><path d="M5.338 5.235c.61 3.556 2.098 6.834 4.615 4.317 2.33-2.335-.627-3.991-4.615-4.317z" fill="#FCFBEC"/><path d="M2.052 13.752c3.02 2.065 6.451 3.326 6.385-.191-.067-3.26-3.348-2.365-6.385.191z" fill="#32A2DC"/><path d="M5.725 21.986c3.623-.657 6.949-2.17 4.335-4.587-2.424-2.239-4.069.683-4.335 4.587z" fill="#85BC33"/><path d="M14.27 25.285c2.152-2.921 3.486-6.264-.111-6.242-3.34.021-2.463 3.243.11 6.242z" fill="#E83C8D"/></svg>