<svg width="30" height="30" fill="none" xmlns="http://www.w3.org/2000/svg"><path d="M16.25 10A3.75 3.75 0 0120 13.75a1.25 1.25 0 002.5 0 6.25 6.25 0 00-6.25-6.25 1.25 1.25 0 000 2.5z" fill="#FDFDFD"/><path d="M16.25 5A8.75 8.75 0 0125 13.75a1.25 1.25 0 002.5 0A11.25 11.25 0 0016.25 2.5a1.25 1.25 0 000 2.5zm10.938 14.887a1.25 1.25 0 00-.9-.812l-7.5-1.712a1.25 1.25 0 00-1.15.325c-.176.162-.188.175-1 1.725A12.387 12.387 0 0110.55 13.3c1.587-.8 1.6-.8 1.762-.988a1.25 1.25 0 00.325-1.15L10.925 3.75a1.25 1.25 0 00-.813-.9 4.738 4.738 0 00-.9-.225A4.924 4.924 0 008.25 2.5 5.75 5.75 0 002.5 8.25 19.275 19.275 0 0021.75 27.5a5.75 5.75 0 005.75-5.75c0-.318-.025-.636-.075-.95a5.421 5.421 0 00-.238-.913z" fill="#FDFDFD"/></svg>