<svg width="24" height="24" fill="none" xmlns="http://www.w3.org/2000/svg"><path d="M21.966 6.544a2.202 2.202 0 00-1.36-1.528C17.4 3.778 12.281 3.788 12 3.788c-.281 0-5.4-.01-8.606 1.228a2.203 2.203 0 00-1.36 1.528C1.791 7.472 1.5 9.178 1.5 12c0 2.822.29 4.528.534 5.456a2.202 2.202 0 001.36 1.529c3.075 1.19 7.893 1.228 8.54 1.228h.132c.646 0 5.465-.038 8.54-1.229a2.203 2.203 0 001.36-1.528c.243-.928.534-2.634.534-5.456 0-2.822-.29-4.528-.534-5.456zm-6.76 5.766l-4.5 3a.337.337 0 01-.206.065.42.42 0 01-.178-.047.365.365 0 01-.197-.328V9a.365.365 0 01.197-.328.375.375 0 01.384.019l4.5 3a.367.367 0 010 .618z" fill="#545454"/></svg>