<svg width="30" height="30" fill="none" xmlns="http://www.w3.org/2000/svg"><path d="M2.505 27.5l1.69-6.21A12.442 12.442 0 012.5 15C2.5 8.096 8.096 2.5 15 2.5S27.5 8.096 27.5 15 21.904 27.5 15 27.5a12.442 12.442 0 01-6.287-1.694L2.505 27.5zm7.984-18.365c-.162.01-.32.053-.464.125-.136.077-.26.173-.367.285-.15.141-.235.264-.327.383a3.411 3.411 0 00-.706 2.097c.003.612.163 1.209.413 1.766.51 1.128 1.352 2.322 2.463 3.428.268.266.529.534.81.782a11.81 11.81 0 004.8 2.558l.712.108c.23.013.462-.005.694-.016.365-.018.72-.117 1.042-.288.163-.085.323-.177.479-.276 0 0 .053-.035.156-.112.169-.125.272-.214.412-.36.104-.107.194-.234.263-.377.097-.204.195-.593.235-.917.03-.247.021-.382.017-.466-.005-.134-.116-.273-.237-.331l-.728-.326s-1.087-.474-1.751-.777a.621.621 0 00-.221-.051.602.602 0 00-.473.159v-.003c-.006 0-.09.072-.993 1.166a.437.437 0 01-.46.163 1.767 1.767 0 01-.24-.082c-.154-.066-.208-.09-.314-.137l-.007-.002a7.517 7.517 0 01-1.962-1.25c-.157-.138-.304-.288-.454-.433a7.87 7.87 0 01-1.275-1.585l-.074-.118a1.154 1.154 0 01-.127-.257c-.047-.184.076-.331.076-.331s.304-.332.445-.512a5.48 5.48 0 00.329-.467c.148-.237.194-.481.116-.67a103.91 103.91 0 00-1.085-2.551c-.073-.168-.292-.288-.491-.311a4.646 4.646 0 00-.203-.02 4.23 4.23 0 00-.503.005v.001z" fill="#FDFDFD"/></svg>